<svg id="OculoJS" xmlns="http://www.w3.org/2000/svg" viewBox="0 0 1585.49 443.57"><defs><style>.cls-1{fill:#692969;}</style></defs><title>OculoJS</title><path class="cls-1" d="M1480.24,385.38l13.5-14.87c9.42,6.22,18.07,13.08,27.7,18.05,21.94,11.33,45.55,12.74,69.63,9.42,13.2-1.82,25.72-5.52,36.41-13.89,19.61-15.35,18.53-46.5-3-59-9.87-5.76-21.34-9.11-32.43-12.36-18.82-5.52-38-9.63-56.85-15.22-14.76-4.38-28-11.78-36.53-25.39-13-20.84-13.3-58.57,18.91-78.81,19.09-12,40.23-15.17,62.22-14.55,25.73.72,48.48,9.28,67.9,26.34,3,2.63,5.85,5.41,9.22,8.54l-15.23,13.76c-7.46-5.71-14.24-11.63-21.71-16.48-18.43-12-39-13.11-60.14-10.95-10.21,1-20,3.36-28.87,8.82-17.29,10.67-23.13,35.11-12,50.57A43.45,43.45,0,0,0,1542,275.47c17,5.17,34.26,9.49,51.45,14,14.82,3.9,29.35,8.27,43,15.54,38.63,20.51,37.28,72.42,5.32,95.57-15.15,11-32.19,16.61-50.42,18.71-24.11,2.78-47.9.93-70.77-7.8A112.79,112.79,0,0,1,1480.24,385.38Z" transform="translate(-80.12 -70.84)"/><path class="cls-1" d="M1339.57,496.59l11.89-16.36c3.34,2.48,6.32,4.87,9.47,7,10.55,7.12,22,8.79,34.37,6,9.25-2.12,15.06-8.17,18.95-16.33,6.45-13.55,8-28.1,8-42.84q.31-121,.42-242c0-2.31,0-4.62,0-7.23h22.42V190q0,116.25-.07,232.5c0,17.64-.76,35.3-5.66,52.47-6.47,22.64-20.72,36.05-44.63,38.85C1373.89,516.26,1355.59,511.3,1339.57,496.59Z" transform="translate(-80.12 -70.84)"/><path class="cls-1" d="M1362.78,414.28H1329.4V379.9h33.38Z" transform="translate(-80.12 -70.84)"/><path class="cls-1" d="M1449.26,103.87v32.27h-30.88V103.87Z" transform="translate(-80.12 -70.84)"/><path class="cls-1" d="M1275.31,207.2c-23.39-23.29-55.3-36.1-89.92-36.1h-.51c-71.88.26-126.21,54.13-126.38,125.31-.08,34.38,12.89,66.28,36.53,89.83s55.25,36.29,89.47,36.29h.86c35.62-.22,68-13.62,91.2-37.7,22.48-23.35,34.85-54.82,34.83-88.62C1311.38,262,1298.57,230.35,1275.31,207.2ZM1126.88,332.07c-12.48-27.58-10.79-54.58,5-80.24,11.25-18.24,31.09-29.08,53.17-29.08h.61c22.12.2,41.86,11.36,52.81,29.86,17.84,30.13,17.36,60.46-1.42,90.14-11.83,18.68-29.95,27.77-55.4,27.78C1157.4,370.15,1137.93,356.49,1126.88,332.07Z" transform="translate(-80.12 -70.84)"/><rect class="cls-1" x="883.74" y="9.53" width="59.29" height="333.89"/><path class="cls-1" d="M918.66,179.5H858.82s.08,96.27-.09,140.25a74.69,74.69,0,0,1-2.11,18.14c-4.9,19.13-28,30.56-47.55,30.56-25.74,0-43.65-15.75-47.45-30.56a74.75,74.75,0,0,1-2.11-18.14c-.17-44-.09-140.25-.09-140.25H699.58s-.14,96.67.11,140.82a161.22,161.22,0,0,0,2.52,28.88c4.73,25.3,16.18,43.76,35,56.44,17.06,11.49,39.24,16.61,71.91,16.61S864,417.13,881,405.64C899.85,393,911.3,374.5,916,349.2a161.09,161.09,0,0,0,2.52-28.87C918.8,276.18,918.66,179.5,918.66,179.5Z" transform="translate(-80.12 -70.84)"/><path class="cls-1" d="M636.25,344.62c-13.27,13.54-31,22.66-48.14,24.4-26.55,2.7-47.12-6.27-61.14-26.67-11.59-16.87-15.66-36.42-12.44-59.79,4.28-31,21-45.53,34.25-52.26,19.38-9.83,44.82-9.21,64.81,1.58,5.05,2.73,15.63,11.2,20,14.68l37.78-37.5a111,111,0,0,0-29-22.4c-24.75-13.61-52.33-18.37-82-14.14-42,6-73.24,27.72-92.9,64.58-14.1,26.44-17.89,55.76-11.59,89.66,4.76,25.62,15.93,46.91,33.21,63.29,19.34,18.33,43.82,28.54,74.84,31.22q8,.69,15.5.69c28.89,0,53.14-7.59,73.78-23,4.32-3.23,18.69-15.62,18.69-15.62Z" transform="translate(-80.12 -70.84)"/><path class="cls-1" d="M394.45,192.52c-11.24,39.3-31.12,76.19-56,103.88h0l-60.1,34.7a258.7,258.7,0,0,0,88.55-6.63,241.21,241.21,0,0,0,57.2-22,176.76,176.76,0,0,0-21-153.3A269.68,269.68,0,0,1,394.45,192.52Z" transform="translate(-80.12 -70.84)"/><path class="cls-1" d="M253.41,149h0l60.07,34.68a258.67,258.67,0,0,0-50-73.36,243.91,243.91,0,0,0-43.23-35.75,176.74,176.74,0,0,0-119,88.83,273.43,273.43,0,0,1,34.18-10.94C175.13,142.55,217,141.31,253.41,149Z" transform="translate(-80.12 -70.84)"/><path class="cls-1" d="M276.52,97.71c28.41,29.39,50.43,65,62,100.4h0v69.37a258.69,258.69,0,0,0,38.51-80,241.63,241.63,0,0,0,9.5-59.56,175.92,175.92,0,0,0-126.89-57.1q-6.46-.11-12.82.24A271.75,271.75,0,0,1,276.52,97.71Z" transform="translate(-80.12 -70.84)"/><path class="cls-1" d="M307.87,350.48a244.67,244.67,0,0,1-54.46-4.93v0h0l-60.09-34.7a258.68,258.68,0,0,0,50,73.35A243.06,243.06,0,0,0,288,420.88a176.69,176.69,0,0,0,125.52-93,269.76,269.76,0,0,1-42.17,14.24A283.75,283.75,0,0,1,307.87,350.48Z" transform="translate(-80.12 -70.84)"/><path class="cls-1" d="M168.25,198.16l0,0v-.07l60.09-34.69a258.67,258.67,0,0,0-88.5,6.63,245.64,245.64,0,0,0-49.59,18.06,176.79,176.79,0,0,0,14.41,149,273.2,273.2,0,0,1,7.61-35C123.54,262.74,143.41,225.85,168.25,198.16Z" transform="translate(-80.12 -70.84)"/><path class="cls-1" d="M230.26,396.8c-28.41-29.39-50.43-65-62-100.4h0V227a258.66,258.66,0,0,0-38.55,80,245.2,245.2,0,0,0-9.19,52.6,176,176,0,0,0,132.91,64c2.28,0,4.55,0,6.81,0A271.51,271.51,0,0,1,230.26,396.8Z" transform="translate(-80.12 -70.84)"/><path class="cls-1" d="M253.9,197.4a49.51,49.51,0,1,1-49.51,49.51A49.51,49.51,0,0,1,253.9,197.4m0-23a72.51,72.51,0,1,0,72.51,72.51A72.59,72.59,0,0,0,253.9,174.4Z" transform="translate(-80.12 -70.84)"/></svg>