<svg id="OculoJS" xmlns="http://www.w3.org/2000/svg" viewBox="0 0 1691.3 352.84"><defs><style>.oculojs-logo-color{fill:#692969;}</style></defs><title>OculoJS</title><path class="oculojs-logo-color" d="M1767.24,311.15c-3.78-26.56-17.93-47.73-42-62.94-13.23-8.34-27.8-13.16-42.81-17.76-7-2.15-14.14-4.22-21-6.23-12.72-3.69-25.87-7.51-38.54-11.9-16.75-5.8-28.55-14.53-36.06-26.68-7.08-11.45-9-25.56-5.32-39.74A56.69,56.69,0,0,1,1608,110.6c15.32-8.63,33.09-11.93,55.93-10.38,26.21,1.78,46.89,11.07,63.19,28.4,1.63,1.73,9.15,10.09,9.15,10.09l21.78-18.59s-14.15-15.44-21.89-21.71c-18-14.63-43.11-23.88-70.68-25.88s-53.74,3.37-74,15.11c-43.86,25.41-49.94,75.54-33.38,109.8,7.09,14.68,19.4,26.51,37.62,36.17,14.39,7.63,30,12.11,45.13,16.46,3.19.92,6.38,1.83,9.56,2.78l7.26,2.13c16.16,4.71,32.87,9.58,47.58,18.35,22.29,13.29,32.91,32.9,31.55,58.28-1.45,27-15,45.82-39.08,54.3-47.58,16.72-89.6,9.53-124.89-21.37-3.56-3.11-6.91-6.67-10.16-10.12-1.52-1.62-5.12-5.56-6.7-7.18l-21.11,21.23a117,117,0,0,0,33.58,30.76c25.83,15.41,53.54,23.15,82.71,23.15a176.81,176.81,0,0,0,34-3.39c22.53-4.41,41.34-13.71,55.9-27.64C1763,370.39,1771.83,343.4,1767.24,311.15Z" transform="translate(-77.12 -70.84)"/><path class="oculojs-logo-color" d="M1511.71,80.07h-29.59s.2,158.56-.19,231.42a166.92,166.92,0,0,1-4.24,36.81c-5.21,22.44-17.6,36.6-36.83,42.09-31.94,9.11-59.79,2.68-82.79-19.13-2.66-2.53-10.65-10.13-13.68-13l-21,17.62c8.32,12.31,26.71,28.9,40.78,35.66a111.18,111.18,0,0,0,48.66,11.05,135.13,135.13,0,0,0,38.81-6c23.62-7.07,40.45-21.93,50-44.17,6.71-15.6,10-33.42,10-54.5C1511.75,242.46,1511.71,80.07,1511.71,80.07Z" transform="translate(-77.12 -70.84)"/><path class="oculojs-logo-color" d="M1275.31,207.2c-23.39-23.29-55.3-36.1-89.92-36.1h-.51c-71.88.26-126.21,54.13-126.38,125.31-.08,34.38,12.89,66.28,36.53,89.83s55.25,36.29,89.47,36.29h.86c35.62-.22,68-13.62,91.2-37.7,22.48-23.35,34.85-54.82,34.83-88.62C1311.38,262,1298.57,230.35,1275.31,207.2ZM1126.88,332.07c-12.48-27.58-10.79-54.58,5-80.24,11.25-18.24,31.09-29.08,53.17-29.08h.61c22.12.2,41.86,11.36,52.81,29.86,17.84,30.13,17.36,60.46-1.42,90.14-11.83,18.68-29.95,27.77-55.4,27.78C1157.4,370.15,1137.93,356.49,1126.88,332.07Z" transform="translate(-77.12 -70.84)"/><path class="oculojs-logo-color" d="M918.66,179.5H858.82s.08,96.27-.09,140.25a74.69,74.69,0,0,1-2.11,18.14c-4.9,19.13-28,30.56-47.55,30.56-25.74,0-43.65-15.75-47.45-30.56a74.75,74.75,0,0,1-2.11-18.14c-.17-44-.09-140.25-.09-140.25H699.58s-.14,96.67.11,140.82a161.22,161.22,0,0,0,2.52,28.88c4.73,25.3,16.18,43.76,35,56.44,17.06,11.49,39.24,16.61,71.91,16.61S864,417.13,881,405.64C899.85,393,911.3,374.5,916,349.2a161.09,161.09,0,0,0,2.52-28.87C918.8,276.18,918.66,179.5,918.66,179.5Z" transform="translate(-77.12 -70.84)"/><path class="oculojs-logo-color" d="M636.25,344.62c-13.27,13.54-31,22.66-48.14,24.4-26.55,2.7-47.12-6.27-61.14-26.67-11.59-16.87-15.66-36.42-12.44-59.79,4.28-31,21-45.53,34.25-52.26,19.38-9.83,44.82-9.21,64.81,1.58,5.05,2.73,15.63,11.2,20,14.68l37.78-37.5a111,111,0,0,0-29-22.4c-24.75-13.61-52.33-18.37-82-14.14-42,6-73.24,27.72-92.9,64.58-14.1,26.44-17.89,55.76-11.59,89.66,4.76,25.62,15.93,46.91,33.21,63.29,19.34,18.33,43.82,28.54,74.84,31.22q8,.69,15.5.69c28.89,0,53.14-7.59,73.78-23,4.32-3.23,18.69-15.62,18.69-15.62Z" transform="translate(-77.12 -70.84)"/><rect class="oculojs-logo-color" x="886.74" y="9.53" width="59.29" height="333.89"/><path class="oculojs-logo-color" d="M378.76,201.16c-10.52,34.48-28.61,66.7-50.93,90.73h0L274.3,321.56a228.13,228.13,0,0,0,78.18-4.48c28.25-6.54,53.35-17.76,73.57-32.76A176.66,176.66,0,0,0,389,134.17,224.26,224.26,0,0,1,378.76,201.16Z" transform="translate(-77.12 -70.84)"/><path class="oculojs-logo-color" d="M151,161.86c35.12-8.13,72.07-8.58,104-1.25h0l52.43,31.51a228.1,228.1,0,0,0-43-65.45c-19.8-21.21-42.09-37.35-65.21-47.35A176.88,176.88,0,0,0,87.85,186.57,224.21,224.21,0,0,1,151,161.86Z" transform="translate(-77.12 -70.84)"/><path class="oculojs-logo-color" d="M276.23,115.76c24.6,26.35,43.46,58.13,53.11,89.48h0l-1.07,61.16a228.13,228.13,0,0,0,35.19-69.91c8.46-27.73,11.3-55.08,8.41-80.08a176.61,176.61,0,0,0-148.56-43A224.25,224.25,0,0,1,276.23,115.76Z" transform="translate(-77.12 -70.84)"/><path class="oculojs-logo-color" d="M356.08,332.67a250.22,250.22,0,0,1-56.1,6.44A215.76,215.76,0,0,1,252,333.92v0h0l-52.45-31.52a228.11,228.11,0,0,0,43,65.44c19.8,21.21,42.09,37.35,65.21,47.35A176.88,176.88,0,0,0,419.21,308,224.25,224.25,0,0,1,356.08,332.67Z" transform="translate(-77.12 -70.84)"/><path class="oculojs-logo-color" d="M128.29,293.39c10.52-34.48,28.61-66.7,50.94-90.73l0,0v-.06L232.77,173a228.1,228.1,0,0,0-78.13,4.49C126.37,184,101.25,195.23,81,210.25A176.65,176.65,0,0,0,118.1,360.31,224.28,224.28,0,0,1,128.29,293.39Z" transform="translate(-77.12 -70.84)"/><path class="oculojs-logo-color" d="M230.84,378.75c-24.6-26.35-43.46-58.13-53.11-89.48h0l1.07-61.17a228.1,228.1,0,0,0-35.22,70c-8.45,27.7-11.29,55-8.42,80a176.61,176.61,0,0,0,148.6,43A224.24,224.24,0,0,1,230.84,378.75Z" transform="translate(-77.12 -70.84)"/></svg>